<?xml version="1.0" encoding="UTF-8" standalone="no"?>
<!-- Created with Inkscape (http://www.inkscape.org/) -->

<svg
   width="120"
   height="120"
   viewBox="0 0 120 120"
   version="1.1"
   id="svg1"
   xml:space="preserve"
   sodipodi:docname="donkey.svg"
   inkscape:version="1.4 (e7c3feb100, 2024-10-09)"
   xmlns:inkscape="http://www.inkscape.org/namespaces/inkscape"
   xmlns:sodipodi="http://sodipodi.sourceforge.net/DTD/sodipodi-0.dtd"
   xmlns:xlink="http://www.w3.org/1999/xlink"
   xmlns="http://www.w3.org/2000/svg"
   xmlns:svg="http://www.w3.org/2000/svg"><sodipodi:namedview
     id="namedview1"
     pagecolor="#ffffff"
     bordercolor="#000000"
     borderopacity="0.25"
     inkscape:showpageshadow="2"
     inkscape:pageopacity="0.0"
     inkscape:pagecheckerboard="0"
     inkscape:deskcolor="#d1d1d1"
     inkscape:document-units="px"
     inkscape:zoom="8.0092453"
     inkscape:cx="45.946901"
     inkscape:cy="51.565408"
     inkscape:window-width="3072"
     inkscape:window-height="1700"
     inkscape:window-x="0"
     inkscape:window-y="0"
     inkscape:window-maximized="1"
     inkscape:current-layer="g2" /><defs
     id="defs1"><linearGradient
       id="linearGradient1"
       inkscape:collect="always"><stop
         style="stop-color:#202020;stop-opacity:1;"
         offset="0"
         id="stop1" /><stop
         style="stop-color:#c1175a;stop-opacity:1;"
         offset="1"
         id="stop2" /></linearGradient><linearGradient
       inkscape:collect="always"
       xlink:href="#linearGradient1"
       id="linearGradient2"
       x1="8.0995388"
       y1="4.1426501"
       x2="50.0844"
       y2="119.49512"
       gradientUnits="userSpaceOnUse" /></defs><g
     inkscape:label="Layer 1"
     inkscape:groupmode="layer"
     id="layer1"><g
       id="g2"
       transform="matrix(0.97755272,0,0,0.86232339,31.561068,6.8169888)"><rect
         style="fill:url(#linearGradient2);stroke:#202020;stroke-width:0;stroke-linecap:round;stroke-opacity:0.32"
         id="rect1"
         width="122.75553"
         height="139.15894"
         x="-32.285793"
         y="-7.7605844" /><path
         fill-rule="evenodd"
         clip-rule="evenodd"
         d="m 30.628,41.4 c 18.176,0 26.655,13.815 26.401,30.692 -0.039,2.664 -0.298,5.369 -0.769,8.064 -0.988,5.65 -6.903,19.02 -6.873,19.107 2.834799,12.37236 -13.378971,18.41515 -18.779495,17.84653 C 25.409513,117.60937 8.9443843,112.41136 12.056,99.583 12.459,98.315 7.921,88.165 7.291,86.659 5.326,81.956 3.562,75.366 4.492,65.282 5.74,51.749 16.012,41.4 30.628,41.4 Z m 10.491,63.516 c 0.731,-1.623 -0.08,-2.756 -1.794,-2.693 -1.73,0.064 -3.387,2.143 -3.041,4.791 0.085,0.652 0.116,1.316 0.312,1.975 1.128,-0.432 2.072,-0.988 2.83,-1.672 0.748,-0.674 1.313,-1.475 1.693,-2.401 z M 17.313,72.709 c 1.505,0 2.725,1.221 2.725,2.725 0,1.506 -1.22,2.727 -2.725,2.727 -1.505,0 -2.726,-1.221 -2.726,-2.727 0,-1.504 1.221,-2.725 2.726,-2.725 z m 26.648,0 c -1.506,0 -2.726,1.221 -2.726,2.725 0,1.506 1.22,2.727 2.726,2.727 1.505,0 2.725,-1.221 2.725,-2.727 0,-1.504 -1.22,-2.725 -2.725,-2.725 z m -24.286,32.207 c -0.732,-1.623 0.08,-2.756 1.793,-2.693 1.731,0.064 3.387,2.143 3.041,4.791 -0.084,0.652 -0.116,1.316 -0.312,1.975 -1.128,-0.432 -2.073,-0.988 -2.83,-1.672 -0.747,-0.674 -1.312,-1.475 -1.692,-2.401 z M 44.622,65.211 c -5.013,0 -7.154,3.193 -7.154,7.252 0,4.057 2.142,7.441 7.154,7.441 5.012,0 7.347,-3.193 7.347,-7.25 0,-4.058 -2.335,-7.443 -7.347,-7.443 z m -20.135577,68.51851 c -56.772219,-141.6348839 -56.772219,-141.6348839 0,0 z M 30.698,89.041 c 8.602,0 14.718,4.168 15.509,12.203 0.791,8.035 -5.139,13.082 -15.575,13.26 -10.438,0.18 -16.3,-5.051 -15.576,-13.26 0.724,-8.209 7.04,-12.203 15.642,-12.203 z M 16.652,65.211 c 5.012,0 7.154,3.193 7.154,7.252 0,4.057 -2.142,7.441 -7.154,7.441 -5.012,0 -7.346,-3.193 -7.346,-7.25 0,-4.058 2.334,-7.443 7.346,-7.443 z M 24.596,37.416 C 20.155,37.759 16.291,39.422 12.907,42.177 -1.242,30.755 -3.15,16.685 4.224,0.603 c 9.987,3.743 17.352,14.48 20.372,36.813 z m 12.276,-0.095 c 4.45,0.229 8.366,1.792 11.84,4.458 C 62.48,29.999 63.928,15.885 56.03,0 46.171,3.999 39.16,14.92 36.872,37.321 Z"
         id="path1"
         style="fill:#f0f0f0;fill-opacity:1"
         sodipodi:nodetypes="scccccccsccccccssssssssssccccccsssssccsscssssssscccccccc" /></g></g></svg>
