<svg
   version="1.1"
   id="svg1"
   viewBox="0 0 397.49274 306.41922"
   inkscape:version="0.0"
   xmlns:inkscape="http://www.inkscape.org/namespaces/inkscape"
   xmlns:sodipodi="http://sodipodi.sourceforge.net/DTD/sodipodi-0.dtd"
   xmlns="http://www.w3.org/2000/svg"
   xmlns:svg="http://www.w3.org/2000/svg">
   <defs
      id="defs1" />
   <path
      [attr.fill]="this.fillColor"
      style="stroke-width:1.09551"
      d="m 64.017143,304.49138 c -7.321019,-2.5932 -12.383446,-6.86851 -16.417219,-13.86462 -1.575056,-2.73175 -1.98739,-7.16997 -2.442681,-26.29223 C 44.609488,241.32882 44.609488,241.32882 30.367862,240.77671 3.5492999,239.73702 -8.5681047,220.49617 6.6700469,203.1477 c 5.1901571,-5.90893 -1.088147,-5.59389 123.3891931,-6.19164 127.98621,-0.61462 119.96613,-0.13323 133.4021,-8.00722 18.12189,-10.62014 22.69844,-23.2252 22.73006,-62.60482 0.0463,-57.769009 16.89185,-78.596219 57.22532,-70.751591 71.79709,13.964132 72.23473,116.802211 0.50807,119.383651 -17.287,0.62216 -17.287,0.62216 -20.96621,9.09352 -12.30049,28.32187 -41.22428,51.1744 -69.70083,55.07023 -11.77427,1.61083 -10.90877,-0.2238 -10.90877,23.12334 0,27.52669 -2.71249,34.43629 -16.13643,41.10469 -7.23241,3.59272 -48.5737,4.01175 -55.0717,0.55819 -13.81622,-7.34307 -15.77732,-12.06798 -16.43264,-39.59152 -0.85391,-35.86396 -21.01737,-36.3673 -21.94244,-0.54776 -0.72394,28.03162 -3.33572,34.10468 -17.34302,40.3269 -6.45007,2.86521 -43.61212,3.13826 -51.405607,0.37771 z M 346.92108,129.45408 c 2.41148,-0.92538 4.97887,-6.16397 4.97887,-10.1591 0,-8.79089 -12.35755,-13.11183 -18.17075,-6.35358 -7.7924,9.05919 1.68865,20.92688 13.19188,16.51268 z M 40.499102,173.48747 C 23.657373,167.47725 17.600518,136.62772 25.512955,97.158151 46.620357,-8.1317819 184.6986,-35.697392 243.71678,53.596465 c 27.35848,41.393056 29.25229,110.887725 3.26313,119.743105 -6.98444,2.37985 -199.839408,2.51798 -206.480808,0.1479 z"
      id="path1" />
</svg>