<?xml version="1.0" encoding="UTF-8" standalone="no"?>
<!-- Created with Inkscape (http://www.inkscape.org/) -->

<svg
   width="120"
   height="120"
   version="1.1"
   viewBox="0 0 120 120"
   xml:space="preserve"
   id="svg3"
   sodipodi:docname="icon.svg"
   inkscape:version="1.4.2 (ebf0e940d0, 2025-05-08)"
   xmlns:inkscape="http://www.inkscape.org/namespaces/inkscape"
   xmlns:sodipodi="http://sodipodi.sourceforge.net/DTD/sodipodi-0.dtd"
   xmlns="http://www.w3.org/2000/svg"
   xmlns:svg="http://www.w3.org/2000/svg"><sodipodi:namedview
     id="namedview3"
     pagecolor="#ffffff"
     bordercolor="#000000"
     borderopacity="0.25"
     inkscape:showpageshadow="2"
     inkscape:pageopacity="0.0"
     inkscape:pagecheckerboard="0"
     inkscape:deskcolor="#d1d1d1"
     inkscape:zoom="9.1593078"
     inkscape:cx="50.440493"
     inkscape:cy="54.480099"
     inkscape:window-width="3072"
     inkscape:window-height="1700"
     inkscape:window-x="0"
     inkscape:window-y="0"
     inkscape:window-maximized="1"
     inkscape:current-layer="svg3" /><defs
     id="defs2"><linearGradient
       id="linearGradient2"
       x1="8.0995"
       x2="50.084"
       y1="4.1427"
       y2="119.5"
       gradientUnits="userSpaceOnUse"
       gradientTransform="matrix(1.1858312,0,0,1.1550899,-6.7075501,-9.0345087)"><stop
         stop-color="#650627"
         offset="0"
         id="stop1" /><stop
         stop-color="#bf1759"
         offset="1"
         id="stop2" /></linearGradient><clipPath
       id="clipPath28"><rect
         x="-32.286"
         y="-7.9054"
         width="122.76"
         height="139.16"
         rx="31.562"
         fill-rule="evenodd"
         id="rect2" /></clipPath><linearGradient
       id="linearGradient2-7"
       x1="8.0994997"
       x2="50.084"
       y1="4.1427002"
       y2="119.5"
       gradientUnits="userSpaceOnUse"
       gradientTransform="matrix(0.95553727,0,0,0.86231645,30.850472,6.6920897)"><stop
         stop-color="#650627"
         offset="0"
         id="stop1-5" /><stop
         stop-color="#bf1759"
         offset="1"
         id="stop2-3" /></linearGradient></defs><rect
     x="0"
     y="0"
     width="120"
     height="120"
     fill="url(#linearGradient2)"
     stroke="#202020"
     stroke-linecap="round"
     stroke-opacity="0.32"
     stroke-width="0.90761"
     id="rect3"
     style="fill:url(#linearGradient2-7);stroke:none;stroke-width:0.908;stroke-dasharray:none;stroke-opacity:1"
     ry="24.999998" /><path
     d="m 29.304722,44.568603 c 18.176,0 26.655,13.815 26.401,30.692 -0.039,2.664 -0.298,5.369 -0.769,8.064 -0.988,5.65 -6.903,19.019997 -6.873,19.106997 2.8348,12.372 -13.379,18.415 -18.779,17.847 -5.198,0.49984 -21.6629997,-4.6982 -18.552,-17.527 0.403,-1.268 -4.1349997,-11.417997 -4.7649997,-12.923997 -1.965,-4.703 -3.729,-11.293 -2.799,-21.377 1.248,-13.533 11.5199997,-23.882 26.1359997,-23.882 z m 10.491,63.515997 c 0.731,-1.623 -0.08,-2.756 -1.794,-2.693 -1.73,0.064 -3.387,2.143 -3.041,4.791 0.085,0.652 0.116,1.316 0.312,1.975 1.128,-0.432 2.072,-0.988 2.83,-1.672 0.748,-0.674 1.313,-1.475 1.693,-2.401 z m -23.806,-32.206997 c 1.505,0 2.725,1.221 2.725,2.725 0,1.506 -1.22,2.727 -2.725,2.727 -1.505,0 -2.726,-1.221 -2.726,-2.727 0,-1.504 1.221,-2.725 2.726,-2.725 z m 26.648,0 c -1.506,0 -2.726,1.221 -2.726,2.725 0,1.506 1.22,2.727 2.726,2.727 1.505,0 2.725,-1.221 2.725,-2.727 0,-1.504 -1.22,-2.725 -2.725,-2.725 z m -24.286,32.206997 c -0.732,-1.623 0.08,-2.756 1.793,-2.693 1.731,0.064 3.387,2.143 3.041,4.791 -0.084,0.652 -0.116,1.316 -0.312,1.975 -1.128,-0.432 -2.073,-0.988 -2.83,-1.672 -0.747,-0.674 -1.312,-1.475 -1.692,-2.401 z m 24.947,-39.704997 c -5.013,0 -7.154,3.193 -7.154,7.252 0,4.057 2.142,7.441 7.154,7.441 5.012,0 7.347,-3.193 7.347,-7.25 0,-4.058 -2.335,-7.443 -7.347,-7.443 z m -13.9244,23.83 c 8.602,0 14.718,4.168 15.509,12.202997 0.791,8.035 -5.139,13.082 -15.575,13.26 -10.438,0.18 -16.3,-5.051 -15.576,-13.26 0.724,-8.208997 7.04,-12.202997 15.642,-12.202997 z m -14.046,-23.83 c 5.012,0 7.154,3.193 7.154,7.252 0,4.057 -2.142,7.441 -7.154,7.441 -5.012,0 -7.3459997,-3.193 -7.3459997,-7.25 0,-4.058 2.3339997,-7.443 7.3459997,-7.443 z m 7.944,-27.795 c -4.441,0.343 -8.305,2.006 -11.689,4.761 -14.1489997,-11.422 -16.0569997,-25.492 -8.6829997,-41.5739999 9.9869997,3.743 17.3519997,14.4799999 20.3719997,36.8129999 z m 12.276,-0.095 c 4.45,0.229 8.366,1.792 11.84,4.458 13.768,-11.78 15.216,-25.894 7.318,-41.7789999 -9.859,3.999 -16.87,14.9199999 -19.158,37.3209999 z"
     clip-rule="evenodd"
     fill="#ffffff"
     fill-rule="evenodd"
     stroke="#747474"
     stroke-width="0.99986"
     id="path3"
     sodipodi:nodetypes="scccccccsccccccssssssssssccccccssssssscssssssscccccccc"
     transform="matrix(0.97751709,0,0,0.86232,31.559937,6.817)" /></svg>
