<?xml version="1.0" encoding="UTF-8" standalone="no"?>
<!-- Created with Inkscape (http://www.inkscape.org/) -->

<svg
   width="512"
   height="512"
   viewBox="0 0 512 512"
   version="1.1"
   id="svg1"
   xml:space="preserve"
   sodipodi:docname="icon_512.svg"
   inkscape:version="1.4.2 (ebf0e940d0, 2025-05-08)"
   xmlns:inkscape="http://www.inkscape.org/namespaces/inkscape"
   xmlns:sodipodi="http://sodipodi.sourceforge.net/DTD/sodipodi-0.dtd"
   xmlns:xlink="http://www.w3.org/1999/xlink"
   xmlns="http://www.w3.org/2000/svg"
   xmlns:svg="http://www.w3.org/2000/svg"><sodipodi:namedview
     id="namedview1"
     pagecolor="#ffffff"
     bordercolor="#000000"
     borderopacity="0.25"
     inkscape:showpageshadow="2"
     inkscape:pageopacity="0.0"
     inkscape:pagecheckerboard="0"
     inkscape:deskcolor="#d1d1d1"
     inkscape:document-units="px"
     inkscape:zoom="2.0023113"
     inkscape:cx="214.00268"
     inkscape:cy="289.16582"
     inkscape:window-width="3072"
     inkscape:window-height="1700"
     inkscape:window-x="0"
     inkscape:window-y="0"
     inkscape:window-maximized="1"
     inkscape:current-layer="g2" /><defs
     id="defs1"><linearGradient
       id="linearGradient1"
       inkscape:collect="always"><stop
         style="stop-color:#202020;stop-opacity:1;"
         offset="0"
         id="stop1" /><stop
         style="stop-color:#c1175a;stop-opacity:1;"
         offset="1"
         id="stop2" /></linearGradient><linearGradient
       inkscape:collect="always"
       xlink:href="#linearGradient1"
       id="linearGradient2"
       x1="8.0995388"
       y1="4.1426501"
       x2="50.0844"
       y2="119.49512"
       gradientUnits="userSpaceOnUse"
       gradientTransform="matrix(4.2666665,0,0,4.1963699,105.46692,-569.08386)" /></defs><g
     inkscape:label="Layer 1"
     inkscape:groupmode="layer"
     id="layer1"><g
       id="g2"
       transform="matrix(0.97755272,0,0,0.86232339,31.561068,6.8169888)"><g
         id="g1"
         transform="matrix(1,0,0,1.0167518,8.9138342e-6,603.8235)"><rect
           style="fill:url(#linearGradient2);stroke:#202020;stroke-width:0;stroke-linecap:round;stroke-opacity:0.32"
           id="rect1"
           width="523.7569"
           height="583.96234"
           x="-32.285793"
           y="-601.65015" /><path
           fill-rule="evenodd"
           clip-rule="evenodd"
           d="m 236.14638,-400.19515 c 77.55093,0 113.728,56.35743 112.64426,125.2061 -0.1664,10.86762 -1.27146,21.9025 -3.28106,32.89659 -4.21547,23.04882 -29.4528,77.5909 -29.3248,77.94581 12.09514,50.47226 -57.08361,75.123452 -80.12584,72.803802 -22.1781,2.039066 -92.42932,-19.165892 -79.15309,-71.498392 1.71947,-5.17272 -17.64266,-46.57901 -20.33066,-52.72264 -8.384,-19.1856 -15.9104,-46.06909 -11.9424,-87.20614 5.3248,-55.20702 49.15199,-97.42513 111.51359,-97.42513 z m 44.7616,259.10955 c 3.11893,-6.62092 -0.34133,-11.24292 -7.6544,-10.98592 -7.38133,0.26109 -14.4512,8.74224 -12.97493,19.54459 0.36266,2.65979 0.49493,5.36854 1.3312,8.05689 4.8128,-1.76232 8.84053,-4.03048 12.07466,-6.82082 3.19147,-2.74954 5.60214,-6.01718 7.22347,-9.79474 z M 179.33572,-272.47204 c 6.42133,0 11.62666,4.981 11.62666,11.11647 0,6.14363 -5.20533,11.12463 -11.62666,11.12463 -6.42134,0 -11.63094,-4.981 -11.63094,-11.12463 0,-6.13547 5.2096,-11.11647 11.63094,-11.11647 z m 113.69813,0 c -6.4256,0 -11.63094,4.981 -11.63094,11.11647 0,6.14363 5.20534,11.12463 11.63094,11.12463 6.42133,0 11.62666,-4.981 11.62666,-11.12463 0,-6.13547 -5.20533,-11.11647 -11.62666,-11.11647 z M 189.41358,-141.0856 c -3.1232,-6.62092 0.34134,-11.24292 7.65014,-10.98592 7.3856,0.26109 14.4512,8.74224 12.97493,19.54459 -0.3584,2.65979 -0.49493,5.36854 -1.3312,8.05689 -4.8128,-1.76232 -8.8448,-4.03048 -12.07467,-6.82082 -3.1872,-2.74954 -5.59786,-6.01718 -7.2192,-9.79474 z m 106.44053,-161.97406 c -21.3888,0 -30.52373,13.02565 -30.52373,29.58408 0,16.55028 9.1392,30.3551 30.52373,30.3551 21.38454,0 31.3472,-13.02565 31.3472,-29.57592 0,-16.55436 -9.96266,-30.36326 -31.3472,-30.36326 z m -85.91179,279.516982 c -242.228124,-577.790662 -242.228124,-577.790662 0,0 z m 26.50273,-182.303982 c 36.70186,0 62.7968,17.00309 66.17173,49.78137 3.37493,32.77829 -21.9264,53.36721 -66.45333,54.09335 -44.53547,0.73429 -69.54667,-20.60525 -66.4576,-54.09335 3.08907,-33.4881 30.03733,-49.78137 66.7392,-49.78137 z m -59.9296,-97.213 c 21.38453,0 30.52373,13.02565 30.52373,29.58408 0,16.55028 -9.1392,30.3551 -30.52373,30.3551 -21.38453,0 -31.34293,-13.02565 -31.34293,-29.57592 0,-16.55436 9.9584,-30.36326 31.34293,-30.36326 z m 33.8944,-113.38796 c -18.94827,1.39924 -35.43467,8.18334 -49.87307,19.42219 -60.36906,-46.59533 -68.509859,-103.99302 -37.04746,-169.59853 42.6112,15.26933 74.0352,59.07026 86.92053,150.17634 z m 52.3776,-0.38755 c 18.98666,0.93419 35.69493,7.31035 50.51733,18.18613 58.74346,-48.05577 64.9216,-105.63295 31.22346,-170.43482 -42.06506,16.31367 -71.97866,60.86521 -81.74079,152.24869 z"
           id="path1"
           style="fill:#f0f0f0;fill-opacity:1;stroke-width:4.172"
           sodipodi:nodetypes="scccccccsccccccssssssssssccccccsssssccsscssssssscccccccc" /></g></g></g></svg>
